<?xml version="1.0" encoding="utf-8"?>
<!-- Generator: Adobe Illustrator 22.0.0, SVG Export Plug-In . SVG Version: 6.00 Build 0)  -->
<svg version="1.1" id="Layer_1" xmlns="http://www.w3.org/2000/svg" xmlns:xlink="http://www.w3.org/1999/xlink" x="0px" y="0px"
	 viewBox="0 0 800 600" enable-background="new 0 0 800 600" xml:space="preserve">
<rect fill="#F6F6F9" width="800" height="600"/>
<path fill="#C0C0C9" d="M799.9,0l0.1,600H0.1L0,0L799.9,0z M783.7,583.7l-0.1-567.4l-767.1,0l0.1,567.4H783.7z"/>
<path fill="#C0C0C9" d="M480.8,219.2v161.6H319V219.2H480.8z M464.5,364.5v-129h-129v129H464.5z"/>
<path fill="#C0C0C9" d="M450.5,340.3c-33.7,0-67.2,0-100.9,0c6.7-13.4,13.4-26.8,20.1-40.2c6.7,6.7,13.3,13.4,20.1,20.3
	c10.3-13.7,20.3-27.1,30.5-40.6C430.3,300,440.4,320.1,450.5,340.3z"/>
<circle fill="#C0C0C9" cx="380" cy="270" r="11"/>
</svg>
